RBDS017runT25_grf
version=1
nRows=37
nColumns=19
inDegrees=no
endheader
time	ground_force_r_vx	ground_force_r_vy	ground_force_r_vz	ground_force_r_px	ground_force_r_py	ground_force_r_pz	ground_force_r_mx	ground_force_r_my	ground_force_r_mz	ground_force_l_vx	ground_force_l_vy	ground_force_l_vz	ground_force_l_px	ground_force_l_py	ground_force_l_pz	ground_force_l_mx	ground_force_l_my	ground_force_l_mz
     14.99900000	      0.00000000	      0.00000000	      0.00000000	      0.00000000	      0.00000000	      0.00000000	      0.00000000	      0.00000000	      0.00000000	    -98.82884678	   1988.44873132	    101.74730288	      2.14308523	      0.00000000	      0.91857444	      0.00000000	      4.94137033	     -0.00000000
     15.00000000	      0.00000000	      0.00000000	      0.00000000	      0.00000000	      0.00000000	      0.00000000	      0.00000000	      0.00000000	      0.00000000	    -95.49548726	   1987.85276249	    102.67551989	      2.14110095	      0.00000000	      0.91841030	      0.00000000	      4.98144760	     -0.00000000
     15.00100000	      0.00000000	      0.00000000	      0.00000000	      0.00000000	      0.00000000	      0.00000000	      0.00000000	      0.00000000	      0.00000000	    -92.13987483	   1986.16393472	    103.57672281	      2.13912858	      0.00000000	      0.91824382	      0.00000000	      5.02138630	     -0.00000000
     15.00200000	      0.00000000	      0.00000000	      0.00000000	      0.00000000	      0.00000000	      0.00000000	      0.00000000	      0.00000000	      0.00000000	    -88.78426240	   1984.47510695	    104.47792574	      2.13715621	      0.00000000	      0.91807734	      0.00000000	      5.06132499	     -0.00000000
     15.00300000	      0.00000000	      0.00000000	      0.00000000	      0.00000000	      0.00000000	      0.00000000	      0.00000000	      0.00000000	      0.00000000	    -85.42864998	   1982.78627919	    105.37912866	      2.13518384	      0.00000000	      0.91791086	      0.00000000	      5.10126368	     -0.00000000
     15.00400000	      0.00000000	      0.00000000	      0.00000000	      0.00000000	      0.00000000	      0.00000000	      0.00000000	      0.00000000	      0.00000000	    -82.05671638	   1980.36687576	    106.24604381	      2.13321808	      0.00000000	      0.91774410	      0.00000000	      5.14107852	     -0.00000000
     15.00500000	      0.00000000	      0.00000000	      0.00000000	      0.00000000	      0.00000000	      0.00000000	      0.00000000	      0.00000000	      0.00000000	    -78.67662219	   1977.58218451	    107.09581509	      2.13125563	      0.00000000	      0.91757721	      0.00000000	      5.18083142	     -0.00000000
     15.00600000	      0.00000000	      0.00000000	      0.00000000	      0.00000000	      0.00000000	      0.00000000	      0.00000000	      0.00000000	      0.00000000	    -75.29652801	   1974.79749325	    107.94558636	      2.12929318	      0.00000000	      0.91741032	      0.00000000	      5.22058433	     -0.00000000
     15.00700000	      0.00000000	      0.00000000	      0.00000000	      0.00000000	      0.00000000	      0.00000000	      0.00000000	      0.00000000	      0.00000000	    -71.90622527	   1971.64864467	    108.77012459	      2.12733290	      0.00000000	      0.91724394	      0.00000000	      5.26016518	     -0.00000000
     15.00800000	      0.00000000	      0.00000000	      0.00000000	      0.00000000	      0.00000000	      0.00000000	      0.00000000	      0.00000000	      0.00000000	    -68.49550541	   1967.77148144	    109.54419674	      2.12537693	      0.00000000	      0.91707861	      0.00000000	      5.29940190	     -0.00000000
     15.00900000	      0.00000000	      0.00000000	      0.00000000	      0.00000000	      0.00000000	      0.00000000	      0.00000000	      0.00000000	      0.00000000	    -65.08478555	   1963.89431821	    110.31826889	      2.12342097	      0.00000000	      0.91691327	      0.00000000	      5.33863863	     -0.00000000
     15.01000000	      0.00000000	      0.00000000	      0.00000000	      0.00000000	      0.00000000	      0.00000000	      0.00000000	      0.00000000	      0.00000000	    -61.67406569	   1960.01715498	    111.09234104	      2.12146500	      0.00000000	      0.91674794	      0.00000000	      5.37787535	     -0.00000000
     15.01100000	      0.00000000	      0.00000000	      0.00000000	      0.00000000	      0.00000000	      0.00000000	      0.00000000	      0.00000000	      0.00000000	    -58.22437950	   1955.05674580	    111.76734820	      2.11951089	      0.00000000	      0.91658614	      0.00000000	      5.41596951	     -0.00000000
     15.01200000	      0.00000000	      0.00000000	      0.00000000	      0.00000000	      0.00000000	      0.00000000	      0.00000000	      0.00000000	      0.00000000	    -54.77469332	   1950.09633661	    112.44235536	      2.11755678	      0.00000000	      0.91642435	      0.00000000	      5.45406366	      0.00000000
     15.01300000	      0.00000000	      0.00000000	      0.00000000	      0.00000000	      0.00000000	      0.00000000	      0.00000000	      0.00000000	      0.00000000	    -51.32500713	   1945.13592743	    113.11736252	      2.11560267	      0.00000000	      0.91626256	      0.00000000	      5.49215782	      0.00000000
     15.01400000	      0.00000000	      0.00000000	      0.00000000	      0.00000000	      0.00000000	      0.00000000	      0.00000000	      0.00000000	      0.00000000	    -47.84350722	   1939.46285577	    113.71184813	      2.11364613	      0.00000000	      0.91610443	      0.00000000	      5.52887838	      0.00000000
     15.01500000	      0.00000000	      0.00000000	      0.00000000	      0.00000000	      0.00000000	      0.00000000	      0.00000000	      0.00000000	      0.00000000	    -44.34610045	   1933.43345288	    114.26607297	      2.11168836	      0.00000000	      0.91594813	      0.00000000	      5.56491214	      0.00000000
     15.01600000	      0.00000000	      0.00000000	      0.00000000	      0.00000000	      0.00000000	      0.00000000	      0.00000000	      0.00000000	      0.00000000	    -40.84869367	   1927.40404998	    114.82029781	      2.10973059	      0.00000000	      0.91579182	      0.00000000	      5.60094590	      0.00000000
     15.01700000	      0.00000000	      0.00000000	      0.00000000	      0.00000000	      0.00000000	      0.00000000	      0.00000000	      0.00000000	      0.00000000	    -37.33290360	   1921.02442712	    115.32781032	      2.10776959	      0.00000000	      0.91563797	      0.00000000	      5.63589653	      0.00000000
     15.01800000	      0.00000000	      0.00000000	      0.00000000	      0.00000000	      0.00000000	      0.00000000	      0.00000000	      0.00000000	      0.00000000	    -33.78034693	   1913.94436435	    115.74189819	      2.10580210	      0.00000000	      0.91548901	      0.00000000	      5.66868091	      0.00000000
     15.01900000	      0.00000000	      0.00000000	      0.00000000	      0.00000000	      0.00000000	      0.00000000	      0.00000000	      0.00000000	      0.00000000	    -30.22779027	   1906.86430157	    116.15598606	      2.10383462	      0.00000000	      0.91534006	      0.00000000	      5.70146528	      0.00000000
     15.02000000	      0.00000000	      0.00000000	      0.00000000	      0.00000000	      0.00000000	      0.00000000	      0.00000000	      0.00000000	      0.00000000	    -26.67523360	   1899.78423880	    116.57007393	      2.10186714	      0.00000000	      0.91519110	      0.00000000	      5.73424966	      0.00000000
     15.02100000	      0.00000000	      0.00000000	      0.00000000	      0.00000000	      0.00000000	      0.00000000	      0.00000000	      0.00000000	      0.00000000	    -23.06301630	   1891.67496090	    116.82768415	      2.09988368	      0.00000000	      0.91505120	      0.00000000	      5.76235837	      0.00000000
     15.02200000	      0.00000000	      0.00000000	      0.00000000	      0.00000000	      0.00000000	      0.00000000	      0.00000000	      0.00000000	      0.00000000	    -19.45079900	   1883.56568299	    117.08529436	      2.09790023	      0.00000000	      0.91491129	      0.00000000	      5.79046708	      0.00000000
     15.02300000	      0.00000000	      0.00000000	      0.00000000	      0.00000000	      0.00000000	      0.00000000	      0.00000000	      0.00000000	      0.00000000	    -15.83858170	   1875.45640509	    117.34290458	      2.09591677	      0.00000000	      0.91477139	      0.00000000	      5.81857579	      0.00000000
     15.02400000	      0.00000000	      0.00000000	      0.00000000	      0.00000000	      0.00000000	      0.00000000	      0.00000000	      0.00000000	      0.00000000	    -12.18643673	   1866.67675974	    117.48768425	      2.09391860	      0.00000000	      0.91463853	      0.00000000	      5.84248835	      0.00000000
     15.02500000	      0.00000000	      0.00000000	      0.00000000	      0.00000000	      0.00000000	      0.00000000	      0.00000000	      0.00000000	      0.00000000	     -8.51432792	   1857.56193068	    117.57604865	      2.09191306	      0.00000000	      0.91450918	     -0.00000000	      5.86430284	      0.00000000
     15.02600000	      0.00000000	      0.00000000	      0.00000000	      0.00000000	      0.00000000	      0.00000000	      0.00000000	      0.00000000	      0.00000000	     -4.84221911	   1848.44710162	    117.66441304	      2.08990752	      0.00000000	      0.91437983	     -0.00000000	      5.88611733	      0.00000000
     15.02700000	      0.00000000	      0.00000000	      0.00000000	      0.00000000	      0.00000000	      0.00000000	      0.00000000	      0.00000000	      0.00000000	     -1.15184906	   1839.00547723	    117.69344314	      2.08789275	      0.00000000	      0.91425442	     -0.00000000	      5.90524810	      0.00000000
     15.02800000	      0.00000000	      0.00000000	      0.00000000	      0.00000000	      0.00000000	      0.00000000	      0.00000000	      0.00000000	      0.00000000	      2.57504346	   1828.91026216	    117.60380467	      2.08585951	      0.00000000	      0.91413687	     -0.00000000	      5.91901141	      0.00000000
     15.02900000	      0.00000000	      0.00000000	      0.00000000	      0.00000000	      0.00000000	      0.00000000	      0.00000000	      0.00000000	      0.00000000	      6.30193597	   1818.81504709	    117.51416619	      2.08382626	      0.00000000	      0.91401932	     -0.00000000	      5.93277473	      0.00000000
     15.03000000	      0.00000000	      0.00000000	      0.00000000	      0.00000000	      0.00000000	      0.00000000	      0.00000000	      0.00000000	      0.00000000	     10.02882849	   1808.71983202	    117.42452772	      2.08179302	      0.00000000	      0.91390178	     -0.00000000	      5.94653805	      0.00000000
     15.03100000	      0.00000000	      0.00000000	      0.00000000	      0.00000000	      0.00000000	      0.00000000	      0.00000000	      0.00000000	      0.00000000	     13.79935244	   1797.67042958	    117.15243724	      2.07972724	      0.00000000	      0.91379698	     -0.00000000	      5.95041490	      0.00000000
     15.03200000	      0.00000000	      0.00000000	      0.00000000	      0.00000000	      0.00000000	      0.00000000	      0.00000000	      0.00000000	      0.00000000	     17.56987639	   1786.62102715	    116.88034677	      2.07766146	      0.00000000	      0.91369217	     -0.00000000	      5.95429175	      0.00000000
     15.03300000	      0.00000000	      0.00000000	      0.00000000	      0.00000000	      0.00000000	      0.00000000	      0.00000000	      0.00000000	      0.00000000	     21.34040034	   1775.57162472	    116.60825630	      2.07559568	      0.00000000	      0.91358737	     -0.00000000	      5.95816860	      0.00000000
     15.03400000	      0.00000000	      0.00000000	      0.00000000	      0.00000000	      0.00000000	      0.00000000	      0.00000000	      0.00000000	      0.00000000	     25.12833146	   1763.90414160	    116.21453079	      2.07350571	      0.00000000	      0.91349147	     -0.00000000	      5.95422119	      0.00000000
     15.03500000	      0.00000000	      0.00000000	      0.00000000	      0.00000000	      0.00000000	      0.00000000	      0.00000000	      0.00000000	      0.00000000	     28.92496618	   1751.92761814	    115.75998776	      2.07140363	      0.00000000	      0.91340002	     -0.00000000	      5.94636164	      0.00000000
